# xmcd
#
# Track frame offsets: 
#        187
#        11517
#        23577
#        36789
#        49932
#        62824
#        77202
#        90064
#        102717
#        116672
#        129224
#        143297
#        155852
#        166877
#
# Disc length: 2369 seconds
#
# Revision: 0
# Processed by: cddbd v1.5.2PL0 Copyright (c) Steve Scherf et al.
# Submitted via: ExactAudioCopyFreeDBPlugin 1.0
#
DISCID=a8093f0e
DTITLE=Muddy Waters - Trouble No More -singles 1955-1959(+2)-
DYEAR=1994
DGENRE=Blues
TTITLE0=Sugar Sweet
TTITLE1=Trouble No More
TTITLE2=All Aboard
TTITLE3=Don't Go No Further
TTITLE4=I Love The Life I Live, I Live The Life I Love
TTITLE5=Rock Me
TTITLE6=Got My Mojo Working
TTITLE7=She's Got It
TTITLE8=Close To You
TTITLE9=Mean Mistreater
TTITLE10=Take The Bitter With The Sweet
TTITLE11=She's Into Something
TTITLE12=Diamonds At Your Feet(bonus)
TTITLE13=Look What You've Done(bonus)
EXTD=
EXTT0=
EXTT1=
EXTT2=
EXTT3=
EXTT4=
EXTT5=
EXTT6=
EXTT7=
EXTT8=
EXTT9=
EXTT10=
EXTT11=
EXTT12=
EXTT13=
PLAYORDER=
